HIERARCHY
ROOT Hips
{
	OFFSET 0.000000 0.000000 0.000000
	CHANNELS 6 Xposition Yposition Zposition Zrotation Yrotation Xrotation 
	JOINT LHipJoint
	{
		OFFSET 0.000000 0.000000 0.000000
		CHANNELS 3 Zrotation Yrotation Xrotation
		JOINT LeftUpLeg
		{
			OFFSET 1.363060 -1.794630 0.839290
			CHANNELS 3 Zrotation Yrotation Xrotation
			JOINT LeftLeg
			{
				OFFSET 2.448110 -6.726130 0.000000
				CHANNELS 3 Zrotation Yrotation Xrotation
				JOINT LeftFoot
				{
					OFFSET 2.562200 -7.039590 0.000000
					CHANNELS 3 Zrotation Yrotation Xrotation
					JOINT LeftToeBase
					{
						OFFSET 0.157640 -0.433110 2.322550
						CHANNELS 3 Zrotation Yrotation Xrotation
						End Site
						{
							OFFSET 0.000000 0.000000 0.000000
						}
					}
				}
			}
		}
	}
	JOINT RHipJoint
	{
		OFFSET 0.000000 0.000000 0.000000
		CHANNELS 3 Zrotation Yrotation Xrotation
		JOINT RightUpLeg
		{
			OFFSET -1.305520 -1.794630 0.839290
			CHANNELS 3 Zrotation Yrotation Xrotation
			JOINT RightLeg
			{
				OFFSET -2.542530 -6.985550 0.000000
				CHANNELS 3 Zrotation Yrotation Xrotation
				JOINT RightFoot
				{
					OFFSET -2.568260 -7.056230 0.000000
					CHANNELS 3 Zrotation Yrotation Xrotation
					JOINT RightToeBase
					{
						OFFSET -0.164730 -0.452590 2.363150
						CHANNELS 3 Zrotation Yrotation Xrotation
						End Site
						{
							OFFSET 0.000000 0.000000 0.000000
						}
					}
				}
			}
		}
	}
	JOINT LowerBack
	{
		OFFSET 0.000000 0.000000 0.000000
		CHANNELS 3 Zrotation Yrotation Xrotation
		JOINT Spine
		{
			OFFSET 0.028270 2.035590 -0.193380
			CHANNELS 3 Zrotation Yrotation Xrotation
			JOINT Spine1
			{
				OFFSET 0.056720 2.048850 -0.042750
				CHANNELS 3 Zrotation Yrotation Xrotation
				JOINT Neck
				{
					OFFSET 0.000000 0.000000 0.000000
					CHANNELS 3 Zrotation Yrotation Xrotation
					JOINT Neck1
					{
						OFFSET -0.054170 1.746240 0.172020
						CHANNELS 3 Zrotation Yrotation Xrotation
						JOINT Head
						{
							OFFSET 0.104070 1.761360 -0.123970
							CHANNELS 3 Zrotation Yrotation Xrotation
							End Site
							{
								OFFSET 0.000000 0.000000 0.000000
							}
						}
					}
				}
				JOINT LeftShoulder
				{
					OFFSET 0.000000 0.000000 0.000000
					CHANNELS 3 Zrotation Yrotation Xrotation
					JOINT LeftArm
					{
						OFFSET 3.362410 1.200890 -0.311210
						CHANNELS 3 Zrotation Yrotation Xrotation
						JOINT LeftForeArm
						{
							OFFSET 4.983000 -0.000000 -0.000000
							CHANNELS 3 Zrotation Yrotation Xrotation
							JOINT LeftHand
							{
								OFFSET 3.483560 -0.000000 -0.000000
								CHANNELS 3 Zrotation Yrotation Xrotation
								JOINT LeftFingerBase
								{
									OFFSET 0.000000 0.000000 0.000000
									CHANNELS 3 Zrotation Yrotation Xrotation
									JOINT LeftHandIndex1
									{
										OFFSET 0.715260 -0.000000 -0.000000
										CHANNELS 3 Zrotation Yrotation Xrotation
										End Site
										{
											OFFSET 0.000000 0.000000 0.000000
										}
									}
								}
								JOINT LThumb
								{
									OFFSET 0.000000 0.000000 0.000000
									CHANNELS 3 Zrotation Yrotation Xrotation
									End Site
									{
										OFFSET 0.000000 0.000000 0.000000
									}
								}
							}
						}
					}
				}
				JOINT RightShoulder
				{
					OFFSET 0.000000 0.000000 0.000000
					CHANNELS 3 Zrotation Yrotation Xrotation
					JOINT RightArm
					{
						OFFSET -3.136600 1.374050 -0.404650
						CHANNELS 3 Zrotation Yrotation Xrotation
						JOINT RightForeArm
						{
							OFFSET -5.241900 -0.000000 -0.000000
							CHANNELS 3 Zrotation Yrotation Xrotation
							JOINT RightHand
							{
								OFFSET -3.444170 -0.000000 -0.000000
								CHANNELS 3 Zrotation Yrotation Xrotation
								JOINT RightFingerBase
								{
									OFFSET 0.000000 0.000000 0.000000
									CHANNELS 3 Zrotation Yrotation Xrotation
									JOINT RightHandIndex1
									{
										OFFSET -0.622530 -0.000000 -0.000000
										CHANNELS 3 Zrotation Yrotation Xrotation
										End Site
										{
											OFFSET 0.000000 0.000000 0.000000
										}
									}
								}
								JOINT RThumb
								{
									OFFSET 0.000000 0.000000 0.000000
									CHANNELS 3 Zrotation Yrotation Xrotation
									End Site
									{
										OFFSET 0.000000 0.000000 0.000000
									}
								}
							}
						}
					}
				}
			}
		}
	}
}
MOTION
Frames: 10
Frame Time: 0.008333
-0.236264 17.405988 -16.197032 177.448450 0.765778 -153.813512 2.166254 -1.799697 -1.178137 -32.174335 -4.991106 -41.593388 0.879534 13.373013 34.155288 -3.209525 15.227032 -22.129998 0.116200 2.197600 6.052000 -3.302303 0.009419 0.174041 27.976904 -6.630782 -30.050618 -10.670932 -17.966783 53.055324 6.597668 -44.258924 30.011204 -2.427200 -9.704200 28.024200 -4.878094 1.493555 -20.169195 0.534697 0.743174 -6.507099 0.104594 -0.260292 0.968887 -1.747375 0.259197 -13.296199 5.890399 -3.938954 17.794172 -0.085800 -2.741500 14.410700 -8.196097 -8.368972 1.784005 -77.518411 16.329470 -1.137701 13.121420 -20.288050 -3.370143 -3.287664 0.603866 0.886318 -32.069473 19.140688 -10.237200 -7.125000 0.000000 0.000000 -49.041600 43.296300 2.831700 8.495845 10.258582 2.099053 75.293011 -13.584560 17.364370 -7.763047 11.674801 -1.214587 0.118669 1.899603 2.402683 13.918887 10.728000 2.159700 7.125000 0.000000 0.000000 28.246900 -21.052600 18.568700 
-0.248846 17.398246 -16.192837 177.478477 0.476044 -153.843358 2.176983 -1.785464 -1.168439 -32.211107 -4.969683 -41.616315 0.921907 13.425748 34.314417 -3.145256 15.031108 -22.025594 0.106800 2.107300 5.802200 -3.282738 -0.012476 0.170170 28.082163 -7.259583 -29.984107 -10.611027 -17.895575 52.916778 6.783360 -44.077315 29.414247 -2.572400 -9.968300 28.874200 -4.560910 1.492778 -20.114353 0.522059 0.702540 -6.511727 -0.170275 -0.291139 0.920506 -1.651248 0.272344 -13.219611 5.829019 -3.939889 17.761600 -0.130300 -2.736100 14.358200 -8.204676 -8.385943 1.794966 -77.427375 16.306344 -1.159871 13.067313 -20.194728 -3.349157 -3.285228 0.618889 0.977950 -32.042113 19.230432 -10.266800 -7.125000 0.000000 0.000000 -49.081400 43.363300 2.722200 8.484813 10.263118 2.082841 75.347044 -13.483935 16.602423 -7.538280 11.447000 -1.188452 0.175731 1.897127 3.185665 14.187461 10.595646 2.164700 7.125000 0.000000 0.000000 28.421300 -21.160900 18.637000 
-0.246157 17.401902 -16.211334 177.677249 0.483691 -153.803570 2.185530 -1.789972 -1.168895 -31.992930 -4.880075 -41.727296 0.963577 13.480647 34.482795 -3.144543 15.051805 -22.087876 0.089700 1.931300 5.315900 -3.277838 -0.008359 0.180079 28.282613 -7.180092 -29.904012 -10.563902 -17.876468 52.755033 6.586330 -43.926763 29.862367 -2.442900 -9.733400 28.117700 -4.366261 1.601369 -20.277649 0.525738 0.778880 -6.530920 -0.203797 -0.265225 0.867622 -1.682784 0.267421 -13.068143 5.815056 -3.977990 17.789638 -0.127100 -2.772000 14.327500 -8.205509 -8.382222 1.793996 -77.382951 16.463947 -1.005238 13.032965 -20.155246 -3.335051 -3.277560 0.630098 1.021976 -31.919833 19.304593 -10.250000 -7.125000 0.000000 0.000000 -49.053200 43.430000 2.606600 8.487024 10.253439 2.077173 75.328439 -13.672010 16.717944 -7.479280 11.390834 -1.180493 0.180958 1.897496 3.064965 14.247843 10.555429 2.162700 7.125000 0.000000 0.000000 28.461400 -21.195100 18.645600 
-0.274763 17.411580 -16.190041 178.477237 -0.340604 -154.062161 2.159131 -1.783752 -1.158149 -30.988874 -5.094113 -41.428921 1.000970 13.515424 34.595503 -3.171132 15.086398 -22.008577 0.084800 1.877900 5.168200 -3.255700 -0.021877 0.200603 29.317764 -8.035172 -29.870609 -10.539858 -17.843032 52.596677 5.781762 -43.177537 31.564625 -2.103000 -9.077400 26.037700 -2.867369 1.741562 -19.610213 0.572286 0.675696 -6.584810 -0.841403 -0.331626 0.401837 -1.517610 0.325289 -12.837273 5.686042 -3.978771 17.755087 -0.204200 -2.785300 14.279000 -8.201936 -8.469030 1.786584 -77.374844 16.452217 -1.196514 12.877071 -19.862737 -3.272651 -3.278472 0.640322 1.361227 -31.899295 19.235572 -10.209700 -7.125000 0.000000 0.000000 -48.995900 43.387400 2.673100 8.493300 10.299513 2.074785 75.262100 -13.963302 17.288231 -7.493672 11.464040 -1.189498 0.157790 1.911564 2.416928 14.243890 10.597638 2.169800 7.125000 0.000000 0.000000 28.454200 -21.168400 18.659700 
-0.265407 17.408462 -16.186493 178.129618 -0.076311 -154.025193 2.177471 -1.777120 -1.133940 -31.368856 -5.120719 -41.573219 1.018646 13.550179 34.696954 -3.047174 14.828457 -22.170073 0.104600 2.085900 5.743100 -3.248020 -0.026791 0.214305 28.895573 -7.828279 -29.858560 -10.528142 -17.830992 52.550381 5.899265 -43.252253 31.313264 -2.118500 -9.108600 26.135600 -3.444885 1.734551 -19.606123 0.546917 0.695388 -6.656703 -0.648909 -0.335491 -0.002651 -1.559709 0.428588 -12.334775 5.720849 -3.975653 17.876309 -0.189800 -2.832600 14.235400 -8.208440 -8.480206 1.769716 -77.377260 16.846186 -1.191606 12.833969 -19.820490 -3.271827 -3.290487 0.661351 1.364761 -31.959416 19.446751 -10.328700 -7.125000 0.000000 0.000000 -49.164000 43.534800 2.439400 8.494582 10.333895 2.070334 75.316300 -14.465412 17.634528 -7.515349 11.461981 -1.191061 0.139147 1.917984 2.162854 14.206995 10.671993 2.182700 7.125000 0.000000 0.000000 28.423300 -21.107700 18.679300 
-0.270999 17.410290 -16.185740 178.191875 -0.112069 -154.059059 2.176987 -1.773308 -1.144243 -31.277523 -5.166403 -41.517795 1.037340 13.581174 34.788025 -2.885515 14.445838 -22.281065 0.130000 2.324300 6.402700 -3.233595 -0.025095 0.192580 28.932519 -8.025517 -29.794030 -10.508281 -17.811825 52.443301 5.510452 -42.801918 32.097091 -1.900800 -8.656300 24.726000 -3.276612 1.700457 -19.621034 0.547855 0.707923 -6.588690 -0.679458 -0.313625 0.461421 -1.791390 0.395135 -13.114152 5.923490 -3.891133 18.029771 0.026100 -2.797500 14.625700 -8.234902 -8.452821 1.768097 -77.330105 16.344865 -1.091589 12.944216 -19.958999 -3.311916 -3.294723 0.694111 1.148284 -31.989541 19.883728 -10.540100 -7.125000 0.000000 0.000000 -49.463500 43.841600 1.942500 8.457077 10.336440 2.063741 75.192079 -13.847659 17.358884 -7.351140 11.300292 -1.167700 0.173157 1.909348 2.454603 14.334775 10.521817 2.163300 7.125000 0.000000 0.000000 28.517100 -21.231400 18.665900 
-0.278419 17.411473 -16.185632 178.352083 -0.232024 -154.078579 2.159864 -1.773880 -1.129419 -31.147866 -5.099784 -41.493728 1.035446 13.567807 34.757579 -2.955759 14.579881 -22.149260 0.122900 2.260400 6.225800 -3.214461 -0.030520 0.210827 29.128660 -8.246405 -29.836038 -10.509535 -17.810763 52.376938 4.800542 -42.099858 33.576637 -1.560100 -7.882300 22.357300 -2.986403 1.752532 -19.608003 0.567423 0.644118 -6.656443 -0.746497 -0.368625 0.072035 -1.931651 0.542479 -12.499203 6.025957 -3.789593 18.114080 0.148700 -2.832500 14.499400 -8.248428 -8.458195 1.765615 -77.536857 17.016776 -0.805992 13.166100 -20.219887 -3.381674 -3.300100 0.688471 0.698801 -31.992001 20.140818 -10.661900 -7.125000 0.000000 0.000000 -49.637700 44.029200 1.634600 8.458255 10.339217 2.060514 75.133732 -14.340829 17.460995 -7.294987 11.255066 -1.167795 0.193755 1.918340 2.626779 14.529866 10.496955 2.182700 7.125000 0.000000 0.000000 28.635900 -21.253900 18.751300 
-0.276699 17.410828 -16.183159 178.298152 -0.190845 -154.047861 2.158368 -1.780376 -1.149614 -31.227284 -5.081563 -41.529058 1.037075 13.574768 34.769693 -2.974752 14.634687 -22.157878 0.113900 2.175900 5.992000 -3.210636 -0.023355 0.185837 29.076391 -8.255941 -29.839239 -10.494416 -17.806215 52.300736 4.550782 -41.886000 34.116502 -1.437600 -7.580400 21.446700 -3.057757 1.747744 -19.725475 0.570855 0.728493 -6.572041 -0.602891 -0.294952 0.576700 -2.178023 0.402461 -13.143833 6.029911 -3.777190 18.072601 0.216100 -2.813700 14.658000 -8.243717 -8.446487 1.764405 -77.545766 16.327029 -0.964279 13.022193 -20.060984 -3.336710 -3.304330 0.694844 0.953541 -32.090348 19.979294 -10.624400 -7.125000 0.000000 0.000000 -49.585100 43.895800 1.858600 8.445856 10.305755 2.073210 74.938911 -13.764093 16.720078 -7.129488 11.082264 -1.157470 0.211213 1.933822 3.186394 14.705596 10.797225 2.283100 7.125000 0.000000 0.000000 28.684300 -20.989500 18.997000 
-0.275838 17.413086 -16.180148 178.160203 -0.086553 -154.014876 2.157310 -1.780818 -1.150587 -31.406621 -5.057149 -41.565919 1.027705 13.565761 34.739186 -2.962537 14.605979 -22.164937 0.115900 2.195200 6.045400 -3.203839 -0.021116 0.177338 28.883544 -8.224788 -29.880749 -10.498969 -17.808896 52.286049 4.369395 -41.704044 34.496975 -1.373700 -7.417100 20.957100 -3.230040 1.742487 -19.755457 0.560600 0.770586 -6.557440 -0.524402 -0.268103 0.690415 -2.260986 0.364317 -13.364828 6.028343 -3.800308 18.123952 0.230100 -2.827000 14.779800 -8.244466 -8.446237 1.754821 -77.583178 16.123128 -1.110962 12.983733 -20.011101 -3.320069 -3.297983 0.694207 1.107681 -32.021339 19.865392 -10.542200 -7.125000 0.000000 0.000000 -49.467000 43.821100 1.977700 8.438356 10.308728 2.075510 74.879274 -13.630855 16.532994 -7.097135 11.041806 -1.154251 0.207274 1.936876 3.320725 14.681050 10.909400 2.308500 7.125000 0.000000 0.000000 28.651300 -20.891900 19.043100 
-0.274333 17.405451 -16.173588 178.119034 -0.055865 -153.968573 2.161940 -1.783137 -1.150916 -31.484851 -5.000001 -41.679597 1.026809 13.563280 34.720981 -3.064690 14.828352 -22.031069 0.091200 1.948000 5.362000 -3.207588 -0.023040 0.183601 28.838228 -8.183246 -29.870740 -10.485023 -17.797027 52.263664 4.640166 -41.945260 33.927435 -1.536500 -7.825400 22.185100 -3.301781 1.749706 -19.769108 0.562261 0.767691 -6.579007 -0.468613 -0.273748 0.593009 -2.317997 0.382803 -13.269709 6.053816 -3.812212 18.185045 0.258000 -2.854100 14.809200 -8.244621 -8.450865 1.741613 -77.631144 16.196673 -1.227012 12.934575 -19.941883 -3.297705 -3.291198 0.676375 1.278983 -31.964452 19.593979 -10.395200 -7.125000 0.000000 0.000000 -49.257500 43.634300 2.278700 8.437902 10.320853 2.078693 74.833308 -13.735554 16.601470 -7.109914 11.050603 -1.154804 0.204206 1.935716 3.284069 14.657838 10.889338 2.300200 7.125000 0.000000 0.000000 28.642200 -20.910000 19.021200 
